<?xml version="1.0" encoding="UTF-8" standalone="no"?>
<!-- Created with Inkscape (http://www.inkscape.org/) -->

<svg
   width="1080"
   height="1080"
   viewBox="0 0 285.74999 285.75001"
   version="1.1"
   id="svg5"
   xmlns="http://www.w3.org/2000/svg"
   xmlns:svg="http://www.w3.org/2000/svg">
  <defs
     id="defs2" />
  <g
     id="layer1">
    <g
       id="g209"
       transform="matrix(0.26458333,0,0,0.26458333,32.556055,103.07371)">
      <g
         id="Layer_2">
	<g
   id="g167">
		<g
   id="g131">
			<polygon
   fill="#56c1ad"
   points="185.293,214.177 185.409,137.186 185.351,137.153 118.617,175.682 "
   id="polygon109" />

			<polygon
   fill="#56c1ad"
   points="115.173,182.835 115.173,182.836 115.173,259.894 181.849,221.531 181.85,221.331 "
   id="polygon111" />

			<polygon
   fill="#2a829c"
   points="106.224,241.057 106.224,182.838 39.374,221.434 105.993,260.029 106.224,259.896 "
   id="polygon113" />

			<polygon
   fill="#2a829c"
   points="35.872,136.984 35.756,214.176 35.872,214.243 102.78,175.613 43.641,141.47 35.872,136.984 "
   id="polygon115" />

			<polygon
   fill="#56c1ad"
   points="47.085,134.315 55.534,139.194 106.223,168.459 106.223,91.334 39.316,129.83 "
   id="polygon117" />

			<polygon
   opacity="0.63"
   points="107.02,261.223 107.258,261.36 107.258,261.086 "
   id="polygon119" />

			<polygon
   fill="#3768b2"
   points="105.695,300.86 105.695,269.617 31.643,226.864 4.586,242.485 "
   id="polygon121" />

			<polygon
   fill="#3768b2"
   points="0,233.988 27.115,218.333 27.115,132.893 0,117.239 "
   id="polygon123" />

			<polygon
   fill="#00b5ce"
   points="4.586,108.811 31.701,124.466 105.694,81.746 105.694,50.436 55.005,79.701 "
   id="polygon125" />

			<polygon
   fill="#00b5ce"
   points="221.398,117.307 194.168,133.029 194.168,218.335 221.398,234.057 221.398,175.526 "
   id="polygon127" />

			<polygon
   fill="#00b5ce"
   points="216.814,242.484 189.641,226.796 115.706,269.483 115.706,300.859 166.395,271.594 "
   id="polygon129" />

		</g>

		<path
   fill="#119da3"
   d="M 207.817,7.827 C 179.91,-8.285 144.225,1.276 128.112,29.184 c -2.139,3.705 -3.825,7.547 -5.077,11.462 -1.756,5.494 -2.654,11.132 -2.742,16.738 -0.01,0.604 -0.009,1.208 0,1.811 v 100.228 l 52.257,-30.17 34.546,-19.945 c 0.525,-0.293 1.047,-0.593 1.563,-0.903 4.811,-2.88 9.245,-6.477 13.126,-10.745 2.765,-3.041 5.249,-6.423 7.388,-10.127 16.113,-27.909 6.551,-63.594 -21.356,-79.706 z m -29.174,69.97 c -10.221,0 -18.506,-8.285 -18.506,-18.506 0,-10.221 8.285,-18.506 18.506,-18.506 10.221,0 18.506,8.285 18.506,18.506 0,10.221 -8.285,18.506 -18.506,18.506 z"
   id="path133" />

		<g
   id="g165">
			<path
   fill="#119da3"
   d="m 305.488,158.731 c -0.426,-0.461 -0.639,-1.047 -0.639,-1.757 V 96.949 l -17.88,13.729 c -0.497,0.426 -1.029,0.639 -1.596,0.639 -0.639,0 -1.242,-0.354 -1.81,-1.064 l -2.554,-3.299 c -0.356,-0.495 -0.532,-0.993 -0.532,-1.49 0,-0.779 0.354,-1.418 1.064,-1.915 l 23.095,-17.881 c 0.78,-0.495 1.703,-0.745 2.767,-0.745 h 5.002 c 0.708,0 1.294,0.231 1.756,0.692 0.46,0.462 0.692,1.048 0.692,1.756 v 69.604 c 0,0.71 -0.231,1.296 -0.692,1.757 -0.462,0.462 -1.048,0.691 -1.756,0.691 h -5.215 c -0.709,-0.001 -1.277,-0.23 -1.702,-0.692 z"
   id="path135" />

			<path
   fill="#119da3"
   d="m 336.618,152.452 c -4.222,-5.356 -6.476,-12.363 -6.758,-21.021 l -0.106,-9.152 0.106,-9.473 c 0.213,-8.584 2.464,-15.556 6.758,-20.913 4.292,-5.356 10.979,-8.035 20.062,-8.035 9.153,0 15.875,2.679 20.168,8.035 4.292,5.357 6.545,12.329 6.758,20.913 0.07,1.987 0.106,5.146 0.106,9.473 0,4.187 -0.037,7.237 -0.106,9.152 -0.285,8.657 -2.538,15.664 -6.758,21.021 -4.223,5.357 -10.946,8.035 -20.168,8.035 -9.153,0 -15.842,-2.678 -20.062,-8.035 z m 32.407,-6.227 c 2.767,-3.618 4.221,-8.728 4.364,-15.326 0.07,-2.057 0.106,-5.002 0.106,-8.833 0,-3.901 -0.037,-6.812 -0.106,-8.728 -0.143,-6.527 -1.615,-11.617 -4.417,-15.272 -2.804,-3.653 -6.901,-5.481 -12.292,-5.481 -5.393,0 -9.472,1.828 -12.24,5.481 -2.767,3.655 -4.222,8.745 -4.363,15.272 l -0.106,8.728 0.106,8.833 c 0.141,6.599 1.596,11.708 4.363,15.326 2.768,3.618 6.847,5.428 12.24,5.428 5.462,0 9.578,-1.81 12.345,-5.428 z"
   id="path137" />

			<path
   fill="#119da3"
   d="m 422.238,159.422 c -0.782,0 -1.455,-0.266 -2.022,-0.798 -0.569,-0.532 -0.852,-1.188 -0.852,-1.97 V 87.689 c 0,-0.78 0.283,-1.437 0.852,-1.969 0.567,-0.532 1.24,-0.799 2.022,-0.799 h 14.155 c 1.277,0 2.235,0.356 2.874,1.064 0.639,0.71 1.064,1.207 1.277,1.49 l 17.028,29.587 17.029,-29.587 c 0.213,-0.283 0.638,-0.78 1.276,-1.49 0.639,-0.708 1.597,-1.064 2.874,-1.064 h 14.155 c 0.779,0 1.437,0.267 1.969,0.799 0.532,0.532 0.798,1.188 0.798,1.969 v 68.966 c 0,0.782 -0.266,1.438 -0.798,1.97 -0.532,0.532 -1.189,0.798 -1.969,0.798 h -15.965 c -0.781,0 -1.437,-0.266 -1.969,-0.798 -0.532,-0.532 -0.798,-1.188 -0.798,-1.97 v -34.482 l -9.579,16.815 c -0.355,0.568 -0.816,1.136 -1.384,1.703 -0.568,0.568 -1.383,0.852 -2.447,0.852 h -6.492 c -0.995,0 -1.774,-0.283 -2.342,-0.852 -0.568,-0.567 -1.029,-1.135 -1.384,-1.703 l -9.579,-16.815 v 34.482 c 0,0.782 -0.266,1.438 -0.798,1.97 -0.532,0.532 -1.189,0.798 -1.969,0.798 h -15.962 z"
   id="path139" />

			<path
   fill="#119da3"
   d="m 511.746,159.422 c -0.711,0 -1.349,-0.266 -1.916,-0.798 -0.569,-0.532 -0.852,-1.188 -0.852,-1.97 V 87.689 c 0,-0.78 0.282,-1.437 0.852,-1.969 0.567,-0.532 1.205,-0.799 1.916,-0.799 h 18.093 c 0.779,0 1.437,0.267 1.969,0.799 0.532,0.532 0.798,1.188 0.798,1.969 v 68.966 c 0,0.782 -0.266,1.438 -0.798,1.97 -0.532,0.532 -1.189,0.798 -1.969,0.798 h -18.093 z"
   id="path141" />

			<path
   fill="#119da3"
   d="m 548.57,159.422 c -0.711,0 -1.349,-0.266 -1.916,-0.798 -0.569,-0.532 -0.852,-1.188 -0.852,-1.97 V 87.689 c 0,-0.78 0.282,-1.437 0.852,-1.969 0.567,-0.532 1.205,-0.799 1.916,-0.799 h 14.154 c 1.277,0 2.199,0.285 2.768,0.852 0.567,0.569 0.958,1.029 1.171,1.384 l 21.924,35.229 V 87.689 c 0,-0.78 0.283,-1.437 0.852,-1.969 0.567,-0.532 1.241,-0.799 2.022,-0.799 h 15.965 c 0.779,0 1.437,0.267 1.969,0.799 0.532,0.532 0.798,1.188 0.798,1.969 v 68.966 c 0,0.782 -0.266,1.438 -0.798,1.97 -0.532,0.532 -1.189,0.798 -1.969,0.798 h -14.049 c -1.277,0 -2.219,-0.301 -2.82,-0.904 -0.604,-0.603 -1.012,-1.046 -1.225,-1.331 l -21.924,-33.312 v 32.78 c 0,0.782 -0.267,1.438 -0.799,1.97 -0.532,0.532 -1.188,0.798 -1.969,0.798 h -16.07 z"
   id="path143" />

			<path
   fill="#119da3"
   d="m 656.168,160.487 c -6.599,0 -12.399,-1.029 -17.401,-3.087 -5.002,-2.057 -8.905,-5.268 -11.707,-9.632 -2.804,-4.363 -4.204,-9.879 -4.204,-16.55 V 87.689 c 0,-0.78 0.283,-1.437 0.852,-1.969 0.567,-0.532 1.206,-0.799 1.916,-0.799 h 17.348 c 0.78,0 1.437,0.267 1.969,0.799 0.532,0.532 0.799,1.188 0.799,1.969 v 43.21 c 0,3.619 0.886,6.352 2.66,8.195 1.772,1.846 4.327,2.768 7.663,2.768 3.334,0 5.87,-0.922 7.609,-2.768 1.738,-1.844 2.607,-4.576 2.607,-8.195 v -43.21 c 0,-0.78 0.283,-1.437 0.852,-1.969 0.567,-0.532 1.241,-0.799 2.022,-0.799 h 17.241 c 0.78,0 1.438,0.267 1.97,0.799 0.532,0.532 0.798,1.188 0.798,1.969 v 43.529 c 0,6.671 -1.384,12.187 -4.15,16.55 -2.768,4.364 -6.636,7.575 -11.602,9.632 -4.967,2.057 -10.714,3.087 -17.242,3.087 z"
   id="path145" />

			<path
   fill="#119da3"
   d="m 721.09,159.422 c -0.781,0 -1.437,-0.266 -1.969,-0.798 -0.532,-0.532 -0.799,-1.188 -0.799,-1.97 v -51.938 h -18.306 c -0.781,0 -1.437,-0.266 -1.969,-0.798 -0.532,-0.532 -0.798,-1.188 -0.798,-1.969 v -14.26 c 0,-0.78 0.266,-1.437 0.798,-1.969 0.532,-0.532 1.188,-0.799 1.969,-0.799 h 59.813 c 0.78,0 1.437,0.267 1.969,0.799 0.532,0.532 0.799,1.188 0.799,1.969 v 14.262 c 0,0.781 -0.267,1.437 -0.799,1.969 -0.532,0.532 -1.188,0.798 -1.969,0.798 h -18.306 v 51.938 c 0,0.782 -0.267,1.438 -0.798,1.97 -0.532,0.532 -1.189,0.798 -1.97,0.798 H 721.09 Z"
   id="path147" />

			<path
   fill="#119da3"
   d="m 773.985,159.422 c -0.711,0 -1.349,-0.266 -1.916,-0.798 -0.569,-0.532 -0.852,-1.188 -0.852,-1.97 V 87.689 c 0,-0.78 0.282,-1.437 0.852,-1.969 0.567,-0.532 1.205,-0.799 1.916,-0.799 h 52.15 c 0.779,0 1.453,0.267 2.021,0.799 0.567,0.532 0.852,1.188 0.852,1.969 v 12.559 c 0,0.71 -0.284,1.349 -0.852,1.916 -0.568,0.568 -1.242,0.852 -2.021,0.852 h -32.887 v 10.536 h 30.545 c 0.78,0 1.453,0.266 2.022,0.798 0.566,0.532 0.852,1.189 0.852,1.97 v 11.494 c 0,0.781 -0.285,1.437 -0.852,1.969 -0.569,0.532 -1.242,0.798 -2.022,0.798 h -30.545 v 10.75 h 33.738 c 0.779,0 1.453,0.284 2.021,0.852 0.567,0.568 0.852,1.242 0.852,2.021 v 12.452 c 0,0.782 -0.284,1.438 -0.852,1.97 -0.568,0.532 -1.242,0.798 -2.021,0.798 h -53.001 z"
   id="path149" />

			<path
   fill="#119da3"
   d="m 295.803,255.522 c -0.782,0 -1.455,-0.266 -2.022,-0.798 -0.569,-0.532 -0.852,-1.188 -0.852,-1.97 v -68.966 c 0,-0.78 0.283,-1.437 0.852,-1.969 0.567,-0.532 1.24,-0.799 2.022,-0.799 h 14.155 c 1.277,0 2.235,0.356 2.874,1.064 0.639,0.71 1.064,1.207 1.277,1.49 l 17.028,29.587 17.029,-29.587 c 0.213,-0.283 0.639,-0.78 1.277,-1.49 0.639,-0.708 1.596,-1.064 2.874,-1.064 h 14.155 c 0.78,0 1.437,0.267 1.969,0.799 0.532,0.532 0.798,1.188 0.798,1.969 v 68.966 c 0,0.782 -0.266,1.438 -0.798,1.97 -0.532,0.532 -1.189,0.798 -1.969,0.798 h -15.965 c -0.781,0 -1.437,-0.266 -1.969,-0.798 -0.532,-0.532 -0.798,-1.188 -0.798,-1.97 v -34.482 l -9.579,16.815 c -0.356,0.568 -0.816,1.136 -1.383,1.703 -0.569,0.568 -1.384,0.852 -2.448,0.852 h -6.492 c -0.994,0 -1.774,-0.283 -2.341,-0.852 -0.569,-0.567 -1.029,-1.135 -1.384,-1.703 l -9.579,-16.815 v 34.482 c 0,0.782 -0.266,1.438 -0.798,1.97 -0.532,0.532 -1.189,0.798 -1.969,0.798 z"
   id="path151" />

			<path
   fill="#119da3"
   d="m 415.216,256.586 c -6.599,0 -12.399,-1.029 -17.401,-3.087 -5.002,-2.057 -8.905,-5.268 -11.707,-9.632 -2.804,-4.363 -4.204,-9.879 -4.204,-16.55 v -43.529 c 0,-0.78 0.283,-1.437 0.852,-1.969 0.567,-0.532 1.206,-0.799 1.916,-0.799 h 17.348 c 0.78,0 1.437,0.267 1.969,0.799 0.532,0.532 0.798,1.188 0.798,1.969 v 43.21 c 0,3.619 0.886,6.352 2.661,8.195 1.773,1.846 4.327,2.768 7.663,2.768 3.334,0 5.87,-0.922 7.61,-2.768 1.738,-1.844 2.607,-4.576 2.607,-8.195 v -43.21 c 0,-0.78 0.283,-1.437 0.852,-1.969 0.567,-0.532 1.24,-0.799 2.022,-0.799 h 17.241 c 0.78,0 1.438,0.267 1.97,0.799 0.532,0.532 0.798,1.188 0.798,1.969 v 43.529 c 0,6.671 -1.384,12.187 -4.151,16.55 -2.767,4.364 -6.635,7.575 -11.601,9.632 -4.968,2.058 -10.715,3.087 -17.243,3.087 z"
   id="path153" />

			<path
   fill="#119da3"
   d="m 490.355,256.586 c -7.45,0 -13.642,-1.048 -18.572,-3.14 -4.933,-2.092 -8.621,-4.824 -11.068,-8.195 -2.448,-3.369 -3.744,-6.935 -3.885,-10.696 0,-0.639 0.213,-1.171 0.639,-1.597 0.425,-0.426 0.957,-0.638 1.596,-0.638 h 16.923 c 0.992,0 1.772,0.159 2.341,0.479 0.567,0.319 1.171,0.764 1.81,1.33 0.639,0.782 1.384,1.509 2.235,2.182 0.852,0.676 1.95,1.208 3.299,1.597 1.348,0.391 2.909,0.586 4.684,0.586 3.263,0 5.781,-0.442 7.556,-1.331 1.773,-0.886 2.661,-2.11 2.661,-3.672 0,-1.205 -0.479,-2.198 -1.437,-2.979 -0.958,-0.78 -2.573,-1.49 -4.843,-2.129 -2.271,-0.639 -5.358,-1.312 -9.26,-2.022 -5.464,-0.921 -10.182,-2.288 -14.155,-4.097 -3.974,-1.81 -7.007,-4.258 -9.1,-7.344 -2.094,-3.087 -3.14,-6.9 -3.14,-11.441 0,-4.611 1.294,-8.69 3.885,-12.239 2.59,-3.547 6.208,-6.314 10.856,-8.302 4.646,-1.985 10.058,-2.979 16.23,-2.979 5.108,0 9.632,0.675 13.569,2.021 3.938,1.349 7.254,3.104 9.951,5.269 2.695,2.165 4.753,4.488 6.173,6.971 1.419,2.484 2.164,4.861 2.235,7.131 0,0.639 -0.231,1.189 -0.692,1.649 -0.462,0.463 -0.976,0.692 -1.543,0.692 H 501.53 c -0.852,0 -1.562,-0.142 -2.129,-0.426 -0.568,-0.283 -1.136,-0.745 -1.703,-1.384 -0.355,-0.992 -1.242,-1.879 -2.66,-2.66 -1.42,-0.78 -3.229,-1.171 -5.428,-1.171 -2.413,0 -4.258,0.409 -5.535,1.224 -1.276,0.816 -1.915,2.006 -1.915,3.565 0,1.064 0.389,1.987 1.171,2.768 0.779,0.781 2.163,1.473 4.15,2.075 1.985,0.604 4.753,1.261 8.302,1.969 6.739,0.994 12.186,2.413 16.337,4.257 4.15,1.847 7.184,4.258 9.1,7.237 1.916,2.98 2.873,6.705 2.873,11.176 0,5.038 -1.455,9.365 -4.363,12.984 -2.91,3.618 -6.901,6.403 -11.974,8.354 -5.074,1.95 -10.875,2.926 -17.401,2.926 z"
   id="path155" />

			<path
   fill="#119da3"
   d="m 536.012,255.522 c -0.711,0 -1.349,-0.266 -1.916,-0.798 -0.569,-0.532 -0.852,-1.188 -0.852,-1.97 v -68.966 c 0,-0.78 0.282,-1.437 0.852,-1.969 0.567,-0.532 1.205,-0.799 1.916,-0.799 h 52.15 c 0.779,0 1.453,0.267 2.021,0.799 0.567,0.532 0.852,1.188 0.852,1.969 v 12.559 c 0,0.71 -0.284,1.349 -0.852,1.916 -0.568,0.568 -1.242,0.852 -2.021,0.852 h -32.887 v 10.536 h 30.545 c 0.78,0 1.453,0.266 2.022,0.798 0.566,0.532 0.852,1.189 0.852,1.97 v 11.494 c 0,0.781 -0.285,1.437 -0.852,1.969 -0.569,0.532 -1.242,0.798 -2.022,0.798 h -30.545 v 10.75 h 33.738 c 0.779,0 1.453,0.284 2.021,0.852 0.567,0.568 0.852,1.242 0.852,2.021 v 12.452 c 0,0.782 -0.284,1.438 -0.852,1.97 -0.568,0.532 -1.242,0.798 -2.021,0.798 h -53.001 z"
   id="path157" />

			<path
   fill="#119da3"
   d="m 635.417,256.586 c -6.599,0 -12.399,-1.029 -17.401,-3.087 -5.002,-2.057 -8.905,-5.268 -11.707,-9.632 -2.804,-4.363 -4.204,-9.879 -4.204,-16.55 v -43.529 c 0,-0.78 0.283,-1.437 0.852,-1.969 0.567,-0.532 1.206,-0.799 1.916,-0.799 h 17.348 c 0.78,0 1.437,0.267 1.969,0.799 0.532,0.532 0.799,1.188 0.799,1.969 v 43.21 c 0,3.619 0.886,6.352 2.66,8.195 1.772,1.846 4.327,2.768 7.663,2.768 3.334,0 5.87,-0.922 7.609,-2.768 1.738,-1.844 2.607,-4.576 2.607,-8.195 v -43.21 c 0,-0.78 0.283,-1.437 0.852,-1.969 0.567,-0.532 1.241,-0.799 2.022,-0.799 h 17.241 c 0.78,0 1.438,0.267 1.97,0.799 0.532,0.532 0.798,1.188 0.798,1.969 v 43.529 c 0,6.671 -1.384,12.187 -4.15,16.55 -2.768,4.364 -6.636,7.575 -11.602,9.632 -4.967,2.058 -10.714,3.087 -17.242,3.087 z"
   id="path159" />

			<path
   fill="#119da3"
   d="m 683.949,255.522 c -0.782,0 -1.455,-0.266 -2.022,-0.798 -0.569,-0.532 -0.852,-1.188 -0.852,-1.97 v -68.966 c 0,-0.78 0.282,-1.437 0.852,-1.969 0.567,-0.532 1.24,-0.799 2.022,-0.799 h 14.154 c 1.277,0 2.235,0.356 2.874,1.064 0.639,0.71 1.064,1.207 1.277,1.49 l 17.028,29.587 17.029,-29.587 c 0.213,-0.283 0.638,-0.78 1.276,-1.49 0.639,-0.708 1.597,-1.064 2.874,-1.064 h 14.155 c 0.779,0 1.437,0.267 1.969,0.799 0.532,0.532 0.798,1.188 0.798,1.969 v 68.966 c 0,0.782 -0.266,1.438 -0.798,1.97 -0.532,0.532 -1.189,0.798 -1.969,0.798 h -15.965 c -0.781,0 -1.437,-0.266 -1.969,-0.798 -0.532,-0.532 -0.798,-1.188 -0.798,-1.97 v -34.482 l -9.579,16.815 c -0.355,0.568 -0.816,1.136 -1.384,1.703 -0.568,0.568 -1.383,0.852 -2.447,0.852 h -6.492 c -0.995,0 -1.774,-0.283 -2.342,-0.852 -0.568,-0.567 -1.029,-1.135 -1.384,-1.703 l -9.578,-16.815 v 34.482 c 0,0.782 -0.267,1.438 -0.799,1.97 -0.532,0.532 -1.188,0.798 -1.969,0.798 z"
   id="path161" />

			<path
   fill="#119da3"
   d="m 800.169,256.586 c -7.45,0 -13.642,-1.048 -18.572,-3.14 -4.933,-2.092 -8.621,-4.824 -11.068,-8.195 -2.448,-3.369 -3.744,-6.935 -3.885,-10.696 0,-0.639 0.213,-1.171 0.639,-1.597 0.425,-0.426 0.957,-0.638 1.596,-0.638 h 16.923 c 0.992,0 1.772,0.159 2.341,0.479 0.567,0.319 1.171,0.764 1.81,1.33 0.639,0.782 1.384,1.509 2.235,2.182 0.852,0.676 1.95,1.208 3.299,1.597 1.348,0.391 2.909,0.586 4.684,0.586 3.263,0 5.781,-0.442 7.556,-1.331 1.773,-0.886 2.661,-2.11 2.661,-3.672 0,-1.205 -0.479,-2.198 -1.437,-2.979 -0.958,-0.78 -2.573,-1.49 -4.843,-2.129 -2.271,-0.639 -5.358,-1.312 -9.26,-2.022 -5.464,-0.921 -10.182,-2.288 -14.155,-4.097 -3.974,-1.81 -7.007,-4.258 -9.1,-7.344 -2.094,-3.087 -3.14,-6.9 -3.14,-11.441 0,-4.611 1.294,-8.69 3.885,-12.239 2.59,-3.547 6.208,-6.314 10.856,-8.302 4.646,-1.985 10.058,-2.979 16.23,-2.979 5.108,0 9.632,0.675 13.569,2.021 3.938,1.349 7.254,3.104 9.951,5.269 2.695,2.165 4.753,4.488 6.173,6.971 1.419,2.484 2.164,4.861 2.235,7.131 0,0.639 -0.231,1.189 -0.692,1.649 -0.462,0.463 -0.976,0.692 -1.543,0.692 h -17.773 c -0.852,0 -1.562,-0.142 -2.129,-0.426 -0.568,-0.283 -1.136,-0.745 -1.703,-1.384 -0.355,-0.992 -1.242,-1.879 -2.66,-2.66 -1.42,-0.78 -3.229,-1.171 -5.428,-1.171 -2.413,0 -4.258,0.409 -5.535,1.224 -1.276,0.816 -1.915,2.006 -1.915,3.565 0,1.064 0.389,1.987 1.171,2.768 0.779,0.781 2.163,1.473 4.15,2.075 1.985,0.604 4.753,1.261 8.302,1.969 6.739,0.994 12.186,2.413 16.337,4.257 4.15,1.847 7.184,4.258 9.1,7.237 1.916,2.98 2.873,6.705 2.873,11.176 0,5.038 -1.455,9.365 -4.363,12.984 -2.91,3.618 -6.901,6.403 -11.974,8.354 -5.073,1.95 -10.874,2.926 -17.401,2.926 z"
   id="path163" />

		</g>

	</g>

</g>
      <g
         id="Layer_3"
         display="none">
</g>
    </g>
  </g>
</svg>
